<?xml version="1.0" encoding="UTF-8"?>
<svg width="83.297mm" height="112.35mm" version="1.1" viewBox="0 0 83.297 112.35" xmlns="http://www.w3.org/2000/svg" xmlns:xlink="http://www.w3.org/1999/xlink"><defs><linearGradient id="g"><stop stop-color="#ffd334" offset="0"/><stop stop-color="#ff9719" offset="1"/></linearGradient><linearGradient id="b"><stop stop-color="#67d334" offset="0"/><stop stop-color="#139719" offset="1"/></linearGradient><linearGradient id="j"><stop stop-color="#abb5bf" offset="0"/><stop stop-color="#7a8997" offset="1"/></linearGradient><clipPath id="k"><rect x="108.8" y="66.471" width="28.606" height="29.604" rx="1.5" ry="1.5" d="m 110.30044,66.470993 h 25.60649 c 0.831,0 1.5,0.669 1.5,1.5 v 26.603954 c 0,0.831 -0.669,1.5 -1.5,1.5 h -25.60649 c -0.831,0 -1.5,-0.669 -1.5,-1.5 V 67.970993 c 0,-0.831 0.669,-1.5 1.5,-1.5 z" display="none" stroke-width="0"/><path class="powerclip" d="m53.845 62.927h86.504v122.56h-86.504zm56.455 3.5444c-0.831 0-1.5 0.669-1.5 1.5v26.604c0 0.831 0.669 1.5 1.5 1.5h25.606c0.831 0 1.5-0.669 1.5-1.5v-26.604c0-0.831-0.669-1.5-1.5-1.5z" display="block" stroke-width="0"/></clipPath><linearGradient id="c" x1="16.326" x2="26.738" y1="109.82" y2="109.83" gradientTransform="translate(19.178 6.0705)" gradientUnits="userSpaceOnUse" xlink:href="#j"/><linearGradient id="a" x1="-22.453" x2="23.227" y1="-1.7764e-15" y2="-1.7764e-15" gradientUnits="userSpaceOnUse" xlink:href="#b"/><linearGradient id="i" x1="-22.453" x2="23.227" y1="-1.7764e-15" y2="-1.7764e-15" gradientTransform="matrix(.9546 -.40479 .26701 1.0884 -4.2791 1.6791)" gradientUnits="userSpaceOnUse" xlink:href="#b"/><linearGradient id="h" x1="-22.453" x2="23.227" y1="-1.7764e-15" y2="-1.7764e-15" gradientTransform="matrix(1.9137 -2.7083e-8 0 1.4993 56.727 -131.69)" gradientUnits="userSpaceOnUse" xlink:href="#b"/><linearGradient id="d" x1="-22.453" x2="23.227" y1="-1.7764e-15" y2="-1.7764e-15" gradientUnits="userSpaceOnUse" xlink:href="#g"/><linearGradient id="f" x1="99.102" x2="98.282" y1="71.015" y2="177.75" gradientUnits="userSpaceOnUse"><stop stop-color="#fff" offset="0"/><stop stop-color="#d9edff" offset="1"/></linearGradient><linearGradient id="e" x1="-22.453" x2="23.227" y1="-1.7764e-15" y2="-1.7764e-15" gradientTransform="matrix(.9546 -.40479 .26701 1.0884 .11536 .030191)" gradientUnits="userSpaceOnUse" xlink:href="#b"/></defs><g transform="matrix(1.0885 0 0 .99807 -64.056 -67.796)" stroke="#124c8a" stroke-linejoin="round" stroke-width="2.8782"><path x="60.284443" y="69.365669" width="73.62571" height="109.68486" ry="0" d="m60.284 69.366h73.626v109.68h-73.626z" clip-path="url(#k)" fill="url(#f)" stroke-linecap="square"/><path d="m133.93 95.707-24.747-26.338 0.25987 26.318z" fill="#48b2e1"/></g><g transform="matrix(.4535 .072363 -.18123 .62424 39.063 -28.02)" display="none"><g fill="url(#a)" stroke="#004d10"><g transform="matrix(1.4393 -.54663 .76697 1.0258 31.215 139.62)" display="none"><path d="m14.51-2.5853 3.8623-0.68817 0.2893-0.01703 4.4335 1.5517v3.4776l-4.4335 1.5517-0.2893-0.01703-3.8623-0.68817-1.7329 4.761 3.401 1.9554 0.2327 0.17295 2.3988 4.0385-2.2354 2.664-4.3937-1.6611-0.2107-0.1991-2.5163-3.0097-4.3877 2.5332 1.3484 3.6841 0.06701 0.282-0.75828 4.6356-3.4248 0.6039-2.298-4.0967-0.03348-0.2879 0.00704-3.9231-4.9895-0.8798-1.3352 3.6889-0.12993 0.2591-3.5606 3.0637-3.0117-1.7388 0.873-4.6154 0.1594-0.2421 2.5271-3.0007-3.2567-3.8812-3.394 1.9676-0.2661 0.11496-4.6968 0.05821-1.1894-3.2679 3.6354-2.9745 0.2777-0.08297 3.8647-0.67431v-5.0665l-3.8647-0.67431-0.2777-0.08297-3.6354-2.9745 1.1894-3.2679 4.6968 0.05821 0.2661 0.11496 3.394 1.9676 3.2567-3.8812-2.5271-3.0007-0.1594-0.2421-0.873-4.6154 3.0117-1.7388 3.5606 3.0637 0.12993 0.2591 1.3352 3.6889 4.9895-0.8798-0.00704-3.9231 0.03348-0.2879 2.298-4.0967 3.4248 0.6039 0.75828 4.6356-0.06701 0.282-1.3484 3.6841 4.3877 2.5332 2.5163-3.0097 0.2107-0.1991 4.3937-1.6611 2.2354 2.664-2.3988 4.0385-0.2327 0.17295-3.401 1.9554z"/><circle r="7.9375"/></g><g transform="matrix(1.4393 -.54663 .76697 1.0258 30.053 138.81)" display="none"><path d="m14.51-2.5853 3.8623-0.68817 0.2893-0.01703 4.4335 1.5517v3.4776l-4.4335 1.5517-0.2893-0.01703-3.8623-0.68817-1.7329 4.761 3.401 1.9554 0.2327 0.17295 2.3988 4.0385-2.2354 2.664-4.3937-1.6611-0.2107-0.1991-2.5163-3.0097-4.3877 2.5332 1.3484 3.6841 0.06701 0.282-0.75828 4.6356-3.4248 0.6039-2.298-4.0967-0.03348-0.2879 0.00704-3.9231-4.9895-0.8798-1.3352 3.6889-0.12993 0.2591-3.5606 3.0637-3.0117-1.7388 0.873-4.6154 0.1594-0.2421 2.5271-3.0007-3.2567-3.8812-3.394 1.9676-0.2661 0.11496-4.6968 0.05821-1.1894-3.2679 3.6354-2.9745 0.2777-0.08297 3.8647-0.67431v-5.0665l-3.8647-0.67431-0.2777-0.08297-3.6354-2.9745 1.1894-3.2679 4.6968 0.05821 0.2661 0.11496 3.394 1.9676 3.2567-3.8812-2.5271-3.0007-0.1594-0.2421-0.873-4.6154 3.0117-1.7388 3.5606 3.0637 0.12993 0.2591 1.3352 3.6889 4.9895-0.8798-0.00704-3.9231 0.03348-0.2879 2.298-4.0967 3.4248 0.6039 0.75828 4.6356-0.06701 0.282-1.3484 3.6841 4.3877 2.5332 2.5163-3.0097 0.2107-0.1991 4.3937-1.6611 2.2354 2.664-2.3988 4.0385-0.2327 0.17295-3.401 1.9554z"/><circle r="7.9375"/></g><g transform="matrix(.76359 -.85548 2.0351 .20269 39.959 128.02)" display="none"><path d="m14.51-2.5853 3.8623-0.68817 0.2893-0.01703 4.4335 1.5517v3.4776l-4.4335 1.5517-0.2893-0.01703-3.8623-0.68817-1.7329 4.761 3.401 1.9554 0.2327 0.17295 2.3988 4.0385-2.2354 2.664-4.3937-1.6611-0.2107-0.1991-2.5163-3.0097-4.3877 2.5332 1.3484 3.6841 0.06701 0.282-0.75828 4.6356-3.4248 0.6039-2.298-4.0967-0.03348-0.2879 0.00704-3.9231-4.9895-0.8798-1.3352 3.6889-0.12993 0.2591-3.5606 3.0637-3.0117-1.7388 0.873-4.6154 0.1594-0.2421 2.5271-3.0007-3.2567-3.8812-3.394 1.9676-0.2661 0.11496-4.6968 0.05821-1.1894-3.2679 3.6354-2.9745 0.2777-0.08297 3.8647-0.67431v-5.0665l-3.8647-0.67431-0.2777-0.08297-3.6354-2.9745 1.1894-3.2679 4.6968 0.05821 0.2661 0.11496 3.394 1.9676 3.2567-3.8812-2.5271-3.0007-0.1594-0.2421-0.873-4.6154 3.0117-1.7388 3.5606 3.0637 0.12993 0.2591 1.3352 3.6889 4.9895-0.8798-0.00704-3.9231 0.03348-0.2879 2.298-4.0967 3.4248 0.6039 0.75828 4.6356-0.06701 0.282-1.3484 3.6841 4.3877 2.5332 2.5163-3.0097 0.2107-0.1991 4.3937-1.6611 2.2354 2.664-2.3988 4.0385-0.2327 0.17295-3.401 1.9554z"/><circle r="7.9375"/></g><g transform="matrix(.76359 -.85548 2.0351 .20269 39.959 127.21)" display="none"><path d="m14.51-2.5853 3.8623-0.68817 0.2893-0.01703 4.4335 1.5517v3.4776l-4.4335 1.5517-0.2893-0.01703-3.8623-0.68817-1.7329 4.761 3.401 1.9554 0.2327 0.17295 2.3988 4.0385-2.2354 2.664-4.3937-1.6611-0.2107-0.1991-2.5163-3.0097-4.3877 2.5332 1.3484 3.6841 0.06701 0.282-0.75828 4.6356-3.4248 0.6039-2.298-4.0967-0.03348-0.2879 0.00704-3.9231-4.9895-0.8798-1.3352 3.6889-0.12993 0.2591-3.5606 3.0637-3.0117-1.7388 0.873-4.6154 0.1594-0.2421 2.5271-3.0007-3.2567-3.8812-3.394 1.9676-0.2661 0.11496-4.6968 0.05821-1.1894-3.2679 3.6354-2.9745 0.2777-0.08297 3.8647-0.67431v-5.0665l-3.8647-0.67431-0.2777-0.08297-3.6354-2.9745 1.1894-3.2679 4.6968 0.05821 0.2661 0.11496 3.394 1.9676 3.2567-3.8812-2.5271-3.0007-0.1594-0.2421-0.873-4.6154 3.0117-1.7388 3.5606 3.0637 0.12993 0.2591 1.3352 3.6889 4.9895-0.8798-0.00704-3.9231 0.03348-0.2879 2.298-4.0967 3.4248 0.6039 0.75828 4.6356-0.06701 0.282-1.3484 3.6841 4.3877 2.5332 2.5163-3.0097 0.2107-0.1991 4.3937-1.6611 2.2354 2.664-2.3988 4.0385-0.2327 0.17295-3.401 1.9554z"/><circle r="7.9375"/></g><g transform="matrix(.76359 -.85548 2.0351 .20269 39.332 126.06)" display="none"><path d="m14.51-2.5853 3.8623-0.68817 0.2893-0.01703 4.4335 1.5517v3.4776l-4.4335 1.5517-0.2893-0.01703-3.8623-0.68817-1.7329 4.761 3.401 1.9554 0.2327 0.17295 2.3988 4.0385-2.2354 2.664-4.3937-1.6611-0.2107-0.1991-2.5163-3.0097-4.3877 2.5332 1.3484 3.6841 0.06701 0.282-0.75828 4.6356-3.4248 0.6039-2.298-4.0967-0.03348-0.2879 0.00704-3.9231-4.9895-0.8798-1.3352 3.6889-0.12993 0.2591-3.5606 3.0637-3.0117-1.7388 0.873-4.6154 0.1594-0.2421 2.5271-3.0007-3.2567-3.8812-3.394 1.9676-0.2661 0.11496-4.6968 0.05821-1.1894-3.2679 3.6354-2.9745 0.2777-0.08297 3.8647-0.67431v-5.0665l-3.8647-0.67431-0.2777-0.08297-3.6354-2.9745 1.1894-3.2679 4.6968 0.05821 0.2661 0.11496 3.394 1.9676 3.2567-3.8812-2.5271-3.0007-0.1594-0.2421-0.873-4.6154 3.0117-1.7388 3.5606 3.0637 0.12993 0.2591 1.3352 3.6889 4.9895-0.8798-0.00704-3.9231 0.03348-0.2879 2.298-4.0967 3.4248 0.6039 0.75828 4.6356-0.06701 0.282-1.3484 3.6841 4.3877 2.5332 2.5163-3.0097 0.2107-0.1991 4.3937-1.6611 2.2354 2.664-2.3988 4.0385-0.2327 0.17295-3.401 1.9554z"/><circle r="7.9375"/></g></g><path d="m33.786 100.51v46.001h0.05994a6.9751 1.995 0 0 0-0.04496 0.21704 6.9751 1.995 0 0 0 6.9753 1.9947 6.9751 1.995 0 0 0 6.9753-1.9947 6.9751 1.995 0 0 0-0.04186-0.21704h0.05323v-46.001h-0.05168a6.9667 1.9953 0 0 1-6.9169 1.7622 6.9667 1.9953 0 0 1-6.9164-1.7622z" fill="url(#c)" stroke="#124c8a" stroke-linecap="square" stroke-linejoin="round"/><ellipse cx="40.752" cy="100.3" rx="6.9667" ry="1.9953" fill="#7a8997" stroke="#124c8a" stroke-linecap="square" stroke-linejoin="round" stroke-width=".97634"/><g stroke="#004d10"><g transform="matrix(.76359 -.85548 2.0351 .20269 39.332 125.25)" display="none" fill="url(#a)"><path d="m14.51-2.5853 3.8623-0.68817 0.2893-0.01703 4.4335 1.5517v3.4776l-4.4335 1.5517-0.2893-0.01703-3.8623-0.68817-1.7329 4.761 3.401 1.9554 0.2327 0.17295 2.3988 4.0385-2.2354 2.664-4.3937-1.6611-0.2107-0.1991-2.5163-3.0097-4.3877 2.5332 1.3484 3.6841 0.06701 0.282-0.75828 4.6356-3.4248 0.6039-2.298-4.0967-0.03348-0.2879 0.00704-3.9231-4.9895-0.8798-1.3352 3.6889-0.12993 0.2591-3.5606 3.0637-3.0117-1.7388 0.873-4.6154 0.1594-0.2421 2.5271-3.0007-3.2567-3.8812-3.394 1.9676-0.2661 0.11496-4.6968 0.05821-1.1894-3.2679 3.6354-2.9745 0.2777-0.08297 3.8647-0.67431v-5.0665l-3.8647-0.67431-0.2777-0.08297-3.6354-2.9745 1.1894-3.2679 4.6968 0.05821 0.2661 0.11496 3.394 1.9676 3.2567-3.8812-2.5271-3.0007-0.1594-0.2421-0.873-4.6154 3.0117-1.7388 3.5606 3.0637 0.12993 0.2591 1.3352 3.6889 4.9895-0.8798-0.00704-3.9231 0.03348-0.2879 2.298-4.0967 3.4248 0.6039 0.75828 4.6356-0.06701 0.282-1.3484 3.6841 4.3877 2.5332 2.5163-3.0097 0.2107-0.1991 4.3937-1.6611 2.2354 2.664-2.3988 4.0385-0.2327 0.17295-3.401 1.9554z"/><circle r="7.9375"/><path d="m14.51-2.5853 3.8623-0.68817 0.2893-0.01703 4.4335 1.5517v3.4776l-4.4335 1.5517-0.2893-0.01703-3.8623-0.68817-1.7329 4.761 3.401 1.9554 0.2327 0.17295 2.3988 4.0385-2.2354 2.664-4.3937-1.6611-0.2107-0.1991-2.5163-3.0097-4.3877 2.5332 1.3484 3.6841 0.06701 0.282-0.75828 4.6356-3.4248 0.6039-2.298-4.0967-0.03348-0.2879 0.00704-3.9231-4.9895-0.8798-1.3352 3.6889-0.12993 0.2591-3.5606 3.0637-3.0117-1.7388 0.873-4.6154 0.1594-0.2421 2.5271-3.0007-3.2567-3.8812-3.394 1.9676-0.2661 0.11496-4.6968 0.05821-1.1894-3.2679 3.6354-2.9745 0.2777-0.08297 3.8647-0.67431v-5.0665l-3.8647-0.67431-0.2777-0.08297-3.6354-2.9745 1.1894-3.2679 4.6968 0.05821 0.2661 0.11496 3.394 1.9676 3.2567-3.8812-2.5271-3.0007-0.1594-0.2421-0.873-4.6154 3.0117-1.7388 3.5606 3.0637 0.12993 0.2591 1.3352 3.6889 4.9895-0.8798-0.00704-3.9231 0.03348-0.2879 2.298-4.0967 3.4248 0.6039 0.75828 4.6356-0.06701 0.282-1.3484 3.6841 4.3877 2.5332 2.5163-3.0097 0.2107-0.1991 4.3937-1.6611 2.2354 2.664-2.3988 4.0385-0.2327 0.17295-3.401 1.9554z"/><circle r="7.9375"/></g><g transform="matrix(.76144 -1.1905 2.0293 .28206 36.914 114.25)"><path d="m8.8817-7.0082 3.5032-2.3124 0.27162-0.13564 4.6465-0.10578 0.92855 3.7849-3.8179 3.4835-0.28072 0.098569-3.8707 0.81443-0.38302 5.8832 3.7687 0.75157 0.26832 0.09404 3.3682 3.4244-1.4226 3.8043-4.6378-0.02937-0.2543-0.13141-3.2057-2.2571-3.5122 4.5332 2.2709 3.4639 0.13926 0.2798 0.51388 5.3522-3.1081 2.0436-3.2875-3.5285-0.10883-0.29979-1.0408-4.2726-4.9979 1.0622-0.28958 4.5554-0.05485 0.33459-2.581 4.7757-3.3392-0.67336-0.39898-5.3767 0.08752-0.32802 1.6112-4.2888-4.1452-2.9059-2.7145 3.5154-0.22332 0.23283-4.468 1.9646-2.008-3.0752 2.6762-4.7089 0.24294-0.20271 3.5092-2.2983-1.3528-5.5142-3.8693 0.83049-0.28725 0.022108-4.2646-1.7658 0.26286-4.0381 4.4991-1.8379 0.28471 0.017405 3.7653 0.76767 2.0725-5.5425-3.2136-2.2429-0.21681-0.19897-2.0657-4.6699 2.4107-3.1116 4.217 1.8931 0.19321 0.2294 2.2595 3.4744 4.5281-2.9773-1.0542-4.2669-0.044912-0.3269 1.0998-5.3889 3.4305-0.72904 1.9616 4.7383 0.011327 0.33405-0.30349 4.5555 4.8649 0.98096 1.5985-4.2942 0.14797-0.30198 3.7507-3.5864 2.8452 1.9946-1.2116 5.3664-0.17596 0.28243-2.7245 3.5049z" fill="url(#i)" stroke="#004d10" stroke-width="1.071"/><g fill="#48b200" stroke="#004d10" stroke-linejoin="round" stroke-width="5.6642"><path d="m8.8817-7.0082 3.5033-2.3124 4.3945-1.649-3.5033 2.3124-4.3945 1.6489"/><path d="m12.385-9.3206 0.2716-0.13564 4.3945-1.6489-0.2716 0.1356-4.3945 1.649"/><path d="m12.657-9.4562 4.6465-0.10579 4.3945-1.6489-4.6465 0.1058-4.3945 1.6489"/><path d="m17.303-9.562 0.9286 3.785 4.3945-1.6489-0.9286-3.785-4.3945 1.6489"/><path d="m18.232-5.777-3.8179 3.4835 4.3945-1.6489 3.8179-3.4835-4.3945 1.6489"/><path d="m14.414-2.2936-0.2808 0.09857 4.3945-1.6489 0.2808-0.09857-4.3945 1.6489"/><path d="m14.133-2.195-3.8707 0.81443 4.3945-1.6489 3.8707-0.81443-4.3945 1.6489"/><path d="m10.262-1.3806-0.38298 5.8832 4.3945-1.6489 0.383-5.8832-4.3945 1.6489"/><path d="m9.8793 4.5026 3.7687 0.75157 4.3945-1.6489-3.7687-0.75157-4.3945 1.6489"/><path d="m13.648 5.2542 0.2684 0.09404 4.3945-1.6489-0.2684-0.09404-4.3945 1.6489"/><path d="m13.916 5.3482 3.3682 3.4244 4.3945-1.6489-3.3682-3.4244-4.3945 1.6489"/><path d="m17.285 8.7726-1.4226 3.8043 4.3945-1.6489 1.4226-3.8043-4.3945 1.6489"/><path d="m15.862 12.577-4.6378-0.0294 4.3945-1.6489 4.6378 0.0294-4.3945 1.6489"/><path d="m11.224 12.548-0.2543-0.1314 4.3945-1.6489 0.2543 0.1314-4.3945 1.6489"/><path d="m10.97 12.416-3.2057-2.2571 4.3945-1.6489 3.2057 2.2571-4.3945 1.6489"/><path d="m7.7642 10.159-3.5122 4.5332 4.3945-1.6489 3.5121-4.5332-4.3945 1.6489"/><path d="m4.2521 14.692 2.2709 3.4638 4.3945-1.6489-2.2708-3.4638-4.3945 1.6489"/><path d="m6.5229 18.156 0.13926 0.2798 4.3945-1.6489-0.1393-0.2798-4.3945 1.6489"/><path d="m6.6622 18.436 0.51388 5.3522 4.3945-1.6489-0.5139-5.3522-4.3945 1.6489"/><path d="m7.1761 23.788-3.108 2.0436 4.3945-1.6489 3.1081-2.0436-4.3945 1.6489"/><path d="m4.068 25.832-3.2875-3.5285 4.3945-1.6489 3.2875 3.5285-4.3945 1.6489"/><path d="m0.78049 22.303-0.10883-0.2998 4.3945-1.6489 0.10883 0.2998-4.3945 1.6489"/><path d="m0.67166 22.003-1.0408-4.2726 4.3945-1.6489 1.0408 4.2726-4.3945 1.6489"/><path d="m-0.36912 17.731-4.9979 1.0621 4.3945-1.6489 4.9979-1.0621-4.3945 1.6489"/><path d="m-5.3671 18.793-0.28958 4.5554 4.3945-1.6489 0.28958-4.5554-4.3945 1.6489"/><path d="m-5.6566 23.348-0.05485 0.3346 4.3945-1.6489 0.05485-0.3346-4.3945 1.6489"/><path d="m-5.7115 23.683-2.581 4.7757 4.3945-1.6489 2.581-4.7757-4.3945 1.6489"/><path d="m-8.2924 28.458-3.3393-0.6733 4.3945-1.6489 3.3392 0.6733-4.3945 1.6489"/><path d="m-11.632 27.785-0.399-5.3767 4.3945-1.6489 0.39898 5.3767-4.3945 1.6489"/><path d="m-12.031 22.408 0.0876-0.328 4.3944-1.6489-0.08752 0.328-4.3945 1.6489"/><path d="m-11.943 22.08 1.6111-4.2888 4.3945-1.6489-1.6112 4.2888-4.3944 1.6489"/><path d="m-10.332 17.792-4.1451-2.906 4.3945-1.6489 4.1451 2.906-4.3945 1.6489"/><path d="m-14.477 14.886-2.7146 3.5154 4.3945-1.6489 2.7146-3.5154-4.3945 1.6489"/><path d="m-17.192 18.401-0.2233 0.2328 4.3945-1.6488 0.2233-0.2329-4.3945 1.6489"/><path d="m-17.415 18.634-4.468 1.9646 4.3945-1.6489 4.468-1.9645-4.3945 1.6488"/><path d="m-21.883 20.598-2.008-3.0752 4.3945-1.6489 2.008 3.0752-4.3945 1.6489"/><path d="m-23.891 17.523 2.6762-4.7089 4.3945-1.6489-2.6762 4.7089-4.3945 1.6489"/><path d="m-21.215 12.814 0.2429-0.2027 4.3945-1.6489-0.2429 0.2027-4.3945 1.6489"/><path d="m-20.972 12.612 3.5092-2.2983 4.3945-1.6489-3.5092 2.2983-4.3945 1.6489"/><path d="m-17.463 10.313-1.3528-5.5143 4.3945-1.6489 1.3528 5.5142-4.3945 1.6489"/><path d="m-18.816 4.7991-3.8693 0.83049 4.3945-1.6489 3.8693-0.83049-4.3945 1.6489"/><path d="m-22.685 5.6296-0.2872 0.02211 4.3945-1.6489 0.2872-0.02211-4.3945 1.6489"/><path d="m-22.972 5.6517-4.2646-1.7658 4.3945-1.6489 4.2646 1.7658-4.3945 1.6489"/><path d="m-27.237 3.886 0.2629-4.0381 4.3945-1.6489-0.2629 4.0381-4.3945 1.6489"/><path d="m-26.974-0.15217 4.4991-1.8379 4.3945-1.6489-4.4991 1.8379-4.3945 1.6489"/><path d="m-22.475-1.99 0.2847 0.01741 4.3945-1.6489-0.2847-0.01741-4.3945 1.6489"/><path d="m-22.19-1.9726 3.7653 0.76767 4.3945-1.6489-3.7653-0.76767-4.3945 1.6489"/><path d="m-18.425-1.205 2.0725-5.5425 4.3945-1.6489-2.0725 5.5425-4.3945 1.6489"/><path d="m-16.352-6.7474-3.2136-2.2429 4.3945-1.6489 3.2136 2.243-4.3945 1.6489"/><path d="m-19.566-8.9904-0.2168-0.19897 4.3945-1.6489 0.2168 0.1989-4.3945 1.6489"/><path d="m-19.782-9.1893-2.0657-4.6699 4.3945-1.6489 2.0657 4.6699-4.3945 1.6489"/><path d="m-21.848-13.859 2.4107-3.1116 4.3945-1.6489-2.4107 3.1116-4.3945 1.6489"/><path d="m-19.438-16.971 4.217 1.8932 4.3945-1.6489-4.217-1.8932-4.3945 1.6489"/><path d="m-15.22-15.078 0.1933 0.2294 4.3945-1.6489-0.1933-0.2294-4.3945 1.6489"/><path d="m-15.027-14.848 2.2595 3.4744 4.3945-1.6489-2.2595-3.4744-4.3945 1.6489"/><path d="m-12.768-11.374 4.5281-2.9773 4.3945-1.6489-4.5281 2.9773-4.3945 1.6489"/><path d="m-8.2396-14.351-1.0542-4.2669 4.3945-1.6489 1.0542 4.2669-4.3945 1.6489"/><path d="m-9.2938-18.618-0.04492-0.3269 4.3945-1.6489 0.04492 0.3269-4.3945 1.6489"/><path d="m-9.3388-18.945 1.0998-5.3889 4.3945-1.6489-1.0998 5.3889-4.3945 1.6489"/><path d="m-8.2389-24.334 3.4306-0.7291 4.3945-1.6489-3.4305 0.7291-4.3945 1.6489"/><path d="m-4.8084-25.063 1.9616 4.7383 4.3945-1.6489-1.9616-4.7383-4.3945 1.6489"/><path d="m-2.8468-20.325 0.01133 0.3341 4.3945-1.6489-0.01133-0.3341-4.3945 1.6489"/><path d="m-2.8354-19.99-0.3035 4.5555 4.3945-1.6489 0.3035-4.5555-4.3945 1.6489"/><path d="m-3.139-15.435 4.8649 0.9809 4.3945-1.6489-4.8649-0.9809-4.3945 1.6489"/><path d="m1.726-14.454 1.5984-4.2942 4.3945-1.6489-1.5984 4.2942-4.3945 1.6489"/><path d="m3.3244-18.748 0.14798-0.302 4.3945-1.6489-0.14798 0.302-4.3945 1.6489"/><path d="m3.4724-19.05 3.7507-3.5864 4.3945-1.6489-3.7507 3.5864-4.3945 1.6489"/><path d="m7.2231-22.637 2.8452 1.9945 4.3945-1.6489-2.8452-1.9945-4.3945 1.6489"/><path d="m10.068-20.642-1.2116 5.3664 4.3945-1.6489 1.2116-5.3664-4.3945 1.6489"/><path d="m8.8567-15.276-0.17596 0.2825 4.3945-1.6489 0.1759-0.2825-4.3945 1.6489"/><path d="m8.6808-14.993-2.7245 3.5049 4.3945-1.6489 2.7245-3.5049-4.3945 1.6489"/><path d="m5.9563-11.488 2.9254 4.4802 4.3945-1.6489-2.9254-4.4802-4.3945 1.6489"/></g><g fill-opacity=".3" stroke="#000" stroke-linejoin="round" stroke-opacity=".6" stroke-width="1px"><path d="M 8.88174,-7.00815 12.385,-9.32055 7.9375,0 0,-7.9375 8.88174,-7.00815"/><path d="M 12.385,-9.32055 12.6566,-9.45619 0,-7.9375 7.9375,0 12.385,-9.32055"/><path d="m12.657-9.4562 4.6465-0.10579-17.303 1.6245 12.657-1.5187"/><path d="m0-7.9375 7.9375 7.9375 8.842-10.97-3.5033 2.3124-13.276 0.71955"/><path d="m7.9375 0-7.9375-7.9375 17.051-3.1676-0.2716 0.1356-8.842 10.97"/><path d="m0-7.9375 21.698-3.2734-4.6465 0.1058-17.051 3.1676"/></g><path d="m13.276-8.6571 3.5032-2.3124 0.27162-0.13564 4.6465-0.10578 0.92855 3.7849-3.8179 3.4835-0.28072 0.098569-3.8707 0.81443-0.38302 5.8832 3.7687 0.75157 0.26832 0.09404 3.3682 3.4244-1.4226 3.8043-4.6378-0.02937-0.2543-0.13141-3.2057-2.2571-3.5122 4.5332 2.2709 3.4639 0.13926 0.2798 0.51388 5.3522-3.1081 2.0436-3.2875-3.5285-0.10883-0.29979-1.0408-4.2726-4.9979 1.0622-0.28958 4.5554-0.05485 0.33459-2.581 4.7757-3.3392-0.67336-0.39898-5.3767 0.08752-0.32802 1.6112-4.2888-4.1451-2.9059-2.7145 3.5154-0.22332 0.23283-4.468 1.9646-2.008-3.0752 2.6762-4.7089 0.24294-0.20271 3.5092-2.2983-1.3528-5.5142-3.8693 0.83049-0.28725 0.022108-4.2646-1.7658 0.26286-4.0381 4.4991-1.8379 0.28471 0.017405 3.7653 0.76767 2.0725-5.5425-3.2136-2.2429-0.21681-0.19897-2.0657-4.6699 2.4107-3.1116 4.217 1.8931 0.19321 0.2294 2.2595 3.4744 4.5281-2.9773-1.0542-4.2669-0.044912-0.3269 1.0998-5.3889 3.4305-0.72904 1.9616 4.7383 0.011327 0.33405-0.30349 4.5555 4.8649 0.98096 1.5985-4.2942 0.14797-0.30198 3.7507-3.5864 2.8452 1.9946-1.2116 5.3664-0.17596 0.28243-2.7245 3.5049z" fill="url(#e)" stroke="#004d10" stroke-width="1.071"/></g><ellipse transform="matrix(-.94349 .3314 -.69096 -.72289 0 0)" cx="56.727" cy="-131.69" rx="15.19" ry="11.901" display="inline" fill="url(#h)" stroke-width="1.6939"/></g></g><g transform="matrix(.49569 0 0 .73828 28.673 -19.193)"><g transform="matrix(2.1952 0 0 1.5379 -157.49 -56.401)"><path transform="matrix(-.40409 .51686 -.90819 -.22798 89.304 126.36)" d="m14.51-2.5853 3.8623-0.68817 0.2893-0.01703 4.4335 1.5517v3.4776l-4.4335 1.5517-0.2893-0.01703-3.8623-0.68817-1.7329 4.761 3.401 1.9554 0.2327 0.17295 2.3988 4.0385-2.2354 2.664-4.3937-1.6611-0.2107-0.1991-2.5163-3.0097-4.3877 2.5332 1.3484 3.6841 0.06701 0.282-0.75828 4.6356-3.4248 0.6039-2.298-4.0967-0.03348-0.2879 0.00704-3.9231-4.9895-0.8798-1.3352 3.6889-0.12993 0.2591-3.5606 3.0637-3.0117-1.7388 0.873-4.6154 0.1594-0.2421 2.5271-3.0007-3.2567-3.8812-3.394 1.9676-0.2661 0.11496-4.6968 0.05821-1.1894-3.2679 3.6354-2.9745 0.2777-0.08297 3.8647-0.67431v-5.0665l-3.8647-0.67431-0.2777-0.08297-3.6354-2.9745 1.1894-3.2679 4.6968 0.05821 0.2661 0.11496 3.394 1.9676 3.2567-3.8812-2.5271-3.0007-0.1594-0.2421-0.873-4.6154 3.0117-1.7388 3.5606 3.0637 0.12993 0.2591 1.3352 3.6889 4.9895-0.8798-0.00704-3.9231 0.03348-0.2879 2.298-4.0967 3.4248 0.6039 0.75828 4.6356-0.06701 0.282-1.3484 3.6841 4.3877 2.5332 2.5163-3.0097 0.2107-0.1991 4.3937-1.6611 2.2354 2.664-2.3988 4.0385-0.2327 0.17295-3.401 1.9554z" fill="url(#a)" stroke="#d86e10"/><g transform="matrix(-.40409 .51686 -.90819 -.22798 89.304 126.36)" fill="#ba6400" stroke="#ba6400" stroke-linejoin="round" stroke-width="1px"><path d="m14.51-2.5853 3.8623-0.68817-14.816 6.4299-3.8623 0.68817z"/><path d="m18.372-3.2735 0.2893-0.01703-14.816 6.4299-0.2893 0.01703z"/><path d="m18.662-3.2905 4.4335 1.5517-14.816 6.4299-4.4335-1.5517z"/><path d="m23.095-1.7388v3.4776l-14.816 6.4299v-3.4776z"/><path d="m23.095 1.7388-4.4335 1.5517-14.816 6.4299 4.4335-1.5517z"/><path d="m18.662 3.2905-0.2893-0.01703-14.816 6.4299 0.2893 0.01703z"/><path d="m18.372 3.2735-3.8623-0.68817-14.816 6.4299 3.8623 0.68817z"/><path d="m14.51 2.5853-1.7329 4.761-14.816 6.4299 1.7329-4.761z"/><path d="m12.777 7.3463 3.401 1.9554-14.816 6.4299-3.401-1.9554z"/><path d="m16.178 9.3017 0.2327 0.17295-14.816 6.4299-0.2327-0.173z"/><path d="m16.411 9.4747 2.3988 4.0385-14.816 6.4299-2.3988-4.0385z"/><path d="m18.81 13.513-2.2354 2.664-14.816 6.4299 2.2354-2.664z"/><path d="m16.574 16.177-4.3937-1.6611-14.816 6.4299 4.3937 1.6611z"/><path d="m12.18 14.516-0.2107-0.1991-14.816 6.4299 0.2107 0.1991z"/><path d="m11.97 14.317-2.5163-3.0097-14.816 6.4299 2.5163 3.0097z"/><path d="m9.4534 11.307-4.3877 2.5332-14.816 6.4299 4.3877-2.5332z"/><path d="m5.0657 13.84 1.3484 3.6841-14.816 6.4299-1.3484-3.6841z"/><path d="m6.4141 17.525 0.06701 0.282-14.816 6.4299-0.06701-0.282z"/><path d="m6.4811 17.807-0.75828 4.6356-14.816 6.4299 0.75828-4.6356z"/><path d="m5.7228 22.442-3.4248 0.6039-14.816 6.4299 3.4248-0.6039z"/><path d="m2.298 23.046-2.298-4.0967-14.816 6.4299 2.298 4.0967z"/><path d="m0 18.949-0.03348-0.2879-14.816 6.4299 0.0335 0.2879z"/><path d="m-0.03348 18.662 0.00704-3.9231-14.816 6.4299-0.0071 3.9231z"/><path d="m-0.02644 14.738-4.9895-0.8798-14.816 6.4299 4.9896 0.8798z"/><path d="m-5.016 13.859-1.3352 3.6889-14.816 6.4299 1.3351-3.6889z"/><path d="m-6.3511 17.548-0.12993 0.2591-14.816 6.4299 0.13-0.2591z"/><path d="m-6.4811 17.807-3.5606 3.0637-14.816 6.4299 3.5606-3.0637z"/><path d="m-10.042 20.87-3.0117-1.7388-14.816 6.4299 3.0117 1.7388z"/><path d="m-13.053 19.132 0.873-4.6154-14.816 6.4299-0.873 4.6154z"/><path d="m-12.18 14.516 0.1594-0.2421-14.816 6.4299-0.1594 0.2421z"/><path d="m-12.021 14.274 2.5271-3.0007-14.816 6.4299-2.5271 3.0007z"/><path d="m-9.4939 11.273-3.2567-3.8812-14.816 6.4299 3.2567 3.8812z"/><path d="m-12.751 7.3921-3.394 1.9676-14.816 6.4299 3.394-1.9676z"/><path d="m-16.145 9.3597-0.2661 0.11496-14.816 6.4299 0.2661-0.115z"/><path d="m-16.411 9.4747-4.6968 0.05821-14.816 6.4299 4.6968-0.0582z"/><path d="m-21.108 9.5329-1.1894-3.2679-14.816 6.4299 1.1894 3.2679z"/><path d="m-22.297 6.265 3.6354-2.9745-14.816 6.4299-3.6354 2.9745z"/><path d="m-18.662 3.2905 0.2777-0.08297-14.816 6.4299-0.2777 0.08297z"/><path d="m-18.384 3.2076 3.8647-0.67431-14.816 6.4299-3.8647 0.67431z"/><path d="m-14.519 2.5332v-5.0665l-14.816 6.4299v5.0665z"/><path d="m-14.519-2.5332-3.8647-0.67431-14.816 6.4299 3.8647 0.67431z"/><path d="m-18.384-3.2076-0.2777-0.08297-14.816 6.4299 0.2777 0.08297z"/><path d="m-18.662-3.2905-3.6354-2.9745-14.816 6.4299 3.6354 2.9745z"/><path d="m-22.297-6.265 1.1894-3.2679-14.816 6.4299-1.1894 3.2679z"/><path d="m-21.108-9.5329 4.6968 0.05821-14.816 6.4299-4.6968-0.05821z"/><path d="m-16.411-9.4747 0.2661 0.11496-14.816 6.4299-0.2661-0.11496z"/><path d="m-16.145-9.3597 3.394 1.9676-14.816 6.4299-3.394-1.9676z"/><path d="m-12.751-7.3921 3.2567-3.8812-14.816 6.4299-3.2567 3.8812z"/><path d="m-9.4939-11.273-2.5271-3.0007-14.816 6.4299 2.5271 3.0007z"/><path d="m-12.021-14.274-0.1594-0.2421-14.816 6.4299 0.1594 0.2421z"/><path d="m-12.18-14.516-0.873-4.6154-14.816 6.4299 0.873 4.6154z"/><path d="m-13.053-19.132 3.0117-1.7388-14.816 6.4299-3.0117 1.7388z"/><path d="m-10.042-20.87 3.5606 3.0637-14.816 6.4299-3.5606-3.0637z"/><path d="m-6.4811-17.807 0.12993 0.2591-14.816 6.4299-0.13-0.2591z"/><path d="m-6.3511-17.548 1.3352 3.6889-14.816 6.4299-1.3351-3.6889z"/><path d="m-5.016-13.859 4.9895-0.8798-14.816 6.4299-4.9896 0.8798z"/><path d="m-0.02644-14.738-0.00704-3.9231-14.816 6.4299 0.0071 3.9231z"/><path d="m-0.03348-18.662 0.03348-0.2879-14.816 6.4299-0.0335 0.2879z"/><path d="m0-18.949 2.298-4.0967-14.816 6.4299-2.298 4.0967z"/><path d="m2.298-23.046 3.4248 0.6039-14.816 6.4299-3.4248-0.6039z"/><path d="m5.7228-22.442 0.75828 4.6356-14.816 6.4299-0.75828-4.6356z"/><path d="m6.4811-17.807-0.06701 0.282-14.816 6.4299 0.06701-0.282z"/><path d="m6.4141-17.525-1.3484 3.6841-14.816 6.4299 1.3484-3.6841z"/><path d="m5.0657-13.84 4.3877 2.5332-14.816 6.4299-4.3877-2.5332z"/><path d="m9.4534-11.307 2.5163-3.0097-14.816 6.4299-2.5163 3.0097z"/><path d="m11.97-14.317 0.2107-0.1991-14.816 6.4299-0.2107 0.1991z"/><path d="m12.18-14.516 4.3937-1.6611-14.816 6.4299-4.3937 1.6611z"/><path d="m16.574-16.177 2.2354 2.664-14.816 6.4299-2.2354-2.664z"/><path d="m18.81-13.513-2.3988 4.0385-14.816 6.4299 2.3988-4.0385z"/><path d="m16.411-9.4747-0.2327 0.17295-14.816 6.4299 0.2327-0.17295z"/><path d="m16.178-9.3017-3.401 1.9554-14.816 6.4299 3.401-1.9554z"/><path d="m12.777-7.3463 1.7329 4.761-14.816 6.4299-1.7329-4.761z"/></g></g><path transform="translate(2.058e-6)" d="m33.786 100.51v46.001h0.05994a6.9751 1.995 0 0 0-0.04496 0.21704 6.9751 1.995 0 0 0 6.9753 1.9947 6.9751 1.995 0 0 0 6.9753-1.9947 6.9751 1.995 0 0 0-0.04186-0.21704h0.05323v-46.001h-0.05168a6.9667 1.9953 0 0 1-6.9169 1.7622 6.9667 1.9953 0 0 1-6.9164-1.7622z" display="none" fill="url(#c)" stroke="#124c8a" stroke-linecap="square" stroke-linejoin="round"/><ellipse transform="translate(2.058e-6)" cx="40.752" cy="100.3" rx="6.9667" ry="1.9953" display="none" fill="#7a8997" stroke="#124c8a" stroke-linecap="square" stroke-linejoin="round" stroke-width=".97634"/></g><g transform="matrix(.49518 .022446 -.033432 .73753 10.212 -45.838)"><g transform="matrix(2.1952 0 0 1.5379 -135.2 -56.706)"><path transform="matrix(-.40409 .51686 -.90819 -.22798 89.304 126.36)" d="m14.51-2.5853 3.8623-0.68817 0.2893-0.01703 4.4335 1.5517v3.4776l-4.4335 1.5517-0.2893-0.01703-3.8623-0.68817-1.7329 4.761 3.401 1.9554 0.2327 0.17295 2.3988 4.0385-2.2354 2.664-4.3937-1.6611-0.2107-0.1991-2.5163-3.0097-4.3877 2.5332 1.3484 3.6841 0.06701 0.282-0.75828 4.6356-3.4248 0.6039-2.298-4.0967-0.03348-0.2879 0.00704-3.9231-4.9895-0.8798-1.3352 3.6889-0.12993 0.2591-3.5606 3.0637-3.0117-1.7388 0.873-4.6154 0.1594-0.2421 2.5271-3.0007-3.2567-3.8812-3.394 1.9676-0.2661 0.11496-4.6968 0.05821-1.1894-3.2679 3.6354-2.9745 0.2777-0.08297 3.8647-0.67431v-5.0665l-3.8647-0.67431-0.2777-0.08297-3.6354-2.9745 1.1894-3.2679 4.6968 0.05821 0.2661 0.11496 3.394 1.9676 3.2567-3.8812-2.5271-3.0007-0.1594-0.2421-0.873-4.6154 3.0117-1.7388 3.5606 3.0637 0.12993 0.2591 1.3352 3.6889 4.9895-0.8798-0.00704-3.9231 0.03348-0.2879 2.298-4.0967 3.4248 0.6039 0.75828 4.6356-0.06701 0.282-1.3484 3.6841 4.3877 2.5332 2.5163-3.0097 0.2107-0.1991 4.3937-1.6611 2.2354 2.664-2.3988 4.0385-0.2327 0.17295-3.401 1.9554z" fill="url(#a)" stroke="#d86e10"/><g stroke="#005000"><g transform="matrix(-.40409 .51686 -.90819 -.22798 89.304 126.36)" fill="#005000" stroke-linejoin="round" stroke-width="1px"><path d="m14.51-2.5853 3.8623-0.68817-14.816 6.4299-3.8623 0.68817z"/><path d="m18.372-3.2735 0.2893-0.01703-14.816 6.4299-0.2893 0.01703z"/><path d="m18.662-3.2905 4.4335 1.5517-14.816 6.4299-4.4335-1.5517z"/><path d="m23.095-1.7388v3.4776l-14.816 6.4299v-3.4776z"/><path d="m23.095 1.7388-4.4335 1.5517-14.816 6.4299 4.4335-1.5517z"/><path d="m18.662 3.2905-0.2893-0.01703-14.816 6.4299 0.2893 0.01703z"/><path d="m18.372 3.2735-3.8623-0.68817-14.816 6.4299 3.8623 0.68817z"/><path d="m14.51 2.5853-1.7329 4.761-14.816 6.4299 1.7329-4.761z"/><path d="m12.777 7.3463 3.401 1.9554-14.816 6.4299-3.401-1.9554z"/><path d="m16.178 9.3017 0.2327 0.17295-14.816 6.4299-0.2327-0.173z"/><path d="m16.411 9.4747 2.3988 4.0385-14.816 6.4299-2.3988-4.0385z"/><path d="m18.81 13.513-2.2354 2.664-14.816 6.4299 2.2354-2.664z"/><path d="m16.574 16.177-4.3937-1.6611-14.816 6.4299 4.3937 1.6611z"/><path d="m12.18 14.516-0.2107-0.1991-14.816 6.4299 0.2107 0.1991z"/><path d="m11.97 14.317-2.5163-3.0097-14.816 6.4299 2.5163 3.0097z"/><path d="m9.4534 11.307-4.3877 2.5332-14.816 6.4299 4.3877-2.5332z"/><path d="m5.0657 13.84 1.3484 3.6841-14.816 6.4299-1.3484-3.6841z"/><path d="m6.4141 17.525 0.06701 0.282-14.816 6.4299-0.06701-0.282z"/><path d="m6.4811 17.807-0.75828 4.6356-14.816 6.4299 0.75828-4.6356z"/><path d="m5.7228 22.442-3.4248 0.6039-14.816 6.4299 3.4248-0.6039z"/><path d="m2.298 23.046-2.298-4.0967-14.816 6.4299 2.298 4.0967z"/><path d="m0 18.949-0.03348-0.2879-14.816 6.4299 0.0335 0.2879z"/><path d="m-0.03348 18.662 0.00704-3.9231-14.816 6.4299-0.0071 3.9231z"/><path d="m-0.02644 14.738-4.9895-0.8798-14.816 6.4299 4.9896 0.8798z"/><path d="m-5.016 13.859-1.3352 3.6889-14.816 6.4299 1.3351-3.6889z"/><path d="m-6.3511 17.548-0.12993 0.2591-14.816 6.4299 0.13-0.2591z"/><path d="m-6.4811 17.807-3.5606 3.0637-14.816 6.4299 3.5606-3.0637z"/><path d="m-10.042 20.87-3.0117-1.7388-14.816 6.4299 3.0117 1.7388z"/><path d="m-13.053 19.132 0.873-4.6154-14.816 6.4299-0.873 4.6154z"/><path d="m-12.18 14.516 0.1594-0.2421-14.816 6.4299-0.1594 0.2421z"/><path d="m-12.021 14.274 2.5271-3.0007-14.816 6.4299-2.5271 3.0007z"/><path d="m-9.4939 11.273-3.2567-3.8812-14.816 6.4299 3.2567 3.8812z"/><path d="m-12.751 7.3921-3.394 1.9676-14.816 6.4299 3.394-1.9676z"/><path d="m-16.145 9.3597-0.2661 0.11496-14.816 6.4299 0.2661-0.115z"/><path d="m-16.411 9.4747-4.6968 0.05821-14.816 6.4299 4.6968-0.0582z"/><path d="m-21.108 9.5329-1.1894-3.2679-14.816 6.4299 1.1894 3.2679z"/><path d="m-22.297 6.265 3.6354-2.9745-14.816 6.4299-3.6354 2.9745z"/><path d="m-18.662 3.2905 0.2777-0.08297-14.816 6.4299-0.2777 0.08297z"/><path d="m-18.384 3.2076 3.8647-0.67431-14.816 6.4299-3.8647 0.67431z"/><path d="m-14.519 2.5332v-5.0665l-14.816 6.4299v5.0665z"/><path d="m-14.519-2.5332-3.8647-0.67431-14.816 6.4299 3.8647 0.67431z"/><path d="m-18.384-3.2076-0.2777-0.08297-14.816 6.4299 0.2777 0.08297z"/><path d="m-18.662-3.2905-3.6354-2.9745-14.816 6.4299 3.6354 2.9745z"/><path d="m-22.297-6.265 1.1894-3.2679-14.816 6.4299-1.1894 3.2679z"/><path d="m-21.108-9.5329 4.6968 0.05821-14.816 6.4299-4.6968-0.05821z"/><path d="m-16.411-9.4747 0.2661 0.11496-14.816 6.4299-0.2661-0.11496z"/><path d="m-16.145-9.3597 3.394 1.9676-14.816 6.4299-3.394-1.9676z"/><path d="m-12.751-7.3921 3.2567-3.8812-14.816 6.4299-3.2567 3.8812z"/><path d="m-9.4939-11.273-2.5271-3.0007-14.816 6.4299 2.5271 3.0007z"/><path d="m-12.021-14.274-0.1594-0.2421-14.816 6.4299 0.1594 0.2421z"/><path d="m-12.18-14.516-0.873-4.6154-14.816 6.4299 0.873 4.6154z"/><path d="m-13.053-19.132 3.0117-1.7388-14.816 6.4299-3.0117 1.7388z"/><path d="m-10.042-20.87 3.5606 3.0637-14.816 6.4299-3.5606-3.0637z"/><path d="m-6.4811-17.807 0.12993 0.2591-14.816 6.4299-0.13-0.2591z"/><path d="m-6.3511-17.548 1.3352 3.6889-14.816 6.4299-1.3351-3.6889z"/><path d="m-5.016-13.859 4.9895-0.8798-14.816 6.4299-4.9896 0.8798z"/><path d="m-0.02644-14.738-0.00704-3.9231-14.816 6.4299 0.0071 3.9231z"/><path d="m-0.03348-18.662 0.03348-0.2879-14.816 6.4299-0.0335 0.2879z"/><path d="m0-18.949 2.298-4.0967-14.816 6.4299-2.298 4.0967z"/><path d="m2.298-23.046 3.4248 0.6039-14.816 6.4299-3.4248-0.6039z"/><path d="m5.7228-22.442 0.75828 4.6356-14.816 6.4299-0.75828-4.6356z"/><path d="m6.4811-17.807-0.06701 0.282-14.816 6.4299 0.06701-0.282z"/><path d="m6.4141-17.525-1.3484 3.6841-14.816 6.4299 1.3484-3.6841z"/><path d="m5.0657-13.84 4.3877 2.5332-14.816 6.4299-4.3877-2.5332z"/><path d="m9.4534-11.307 2.5163-3.0097-14.816 6.4299-2.5163 3.0097z"/><path d="m11.97-14.317 0.2107-0.1991-14.816 6.4299-0.2107 0.1991z"/><path d="m12.18-14.516 4.3937-1.6611-14.816 6.4299-4.3937 1.6611z"/><path d="m16.574-16.177 2.2354 2.664-14.816 6.4299-2.2354-2.664z"/><path d="m18.81-13.513-2.3988 4.0385-14.816 6.4299 2.3988-4.0385z"/><path d="m16.411-9.4747-0.2327 0.17295-14.816 6.4299 0.2327-0.17295z"/><path d="m16.178-9.3017-3.401 1.9554-14.816 6.4299 3.401-1.9554z"/><path d="m12.777-7.3463 1.7329 4.761-14.816 6.4299-1.7329-4.761z"/></g><path transform="matrix(-.40409 .51686 -.90819 -.22798 89.304 126.36)" d="m-0.30617 3.8446 3.8623-0.68817 0.2893-0.01703 4.4335 1.5517-1e-6 3.4776-4.4335 1.5517-0.2893-0.01703-3.8623-0.68817-1.7329 4.761 3.401 1.9554 0.2327 0.17295 2.3988 4.0385-2.2354 2.664-4.3937-1.6611-0.2107-0.1991-2.5163-3.0097-4.3877 2.5332 1.3484 3.6841 0.06701 0.282-0.75828 4.6356-3.4248 0.6039-2.298-4.0967-0.03348-0.2879 7e-3 -3.9231-4.9895-0.8798-1.3352 3.6889-0.12993 0.2591-3.5606 3.0637-3.0117-1.7388 0.873-4.6154 0.1594-0.2421 2.5271-3.0007-3.2567-3.8812-3.394 1.9676-0.2661 0.11496-4.6968 0.05821-1.1894-3.2679 3.6354-2.9745 0.2777-0.08297 3.8647-0.67431v-5.0665l-3.8647-0.67431-0.2777-0.08297-3.6354-2.9745 1.1894-3.2679 4.6968 0.05821 0.2661 0.11496 3.394 1.9676 3.2567-3.8812-2.5271-3.0007-0.1594-0.2421-0.873-4.6154 3.0117-1.7388 3.5606 3.0637 0.12993 0.2591 1.3352 3.6889 4.9895-0.8798-7e-3 -3.9231 0.03348-0.28792 2.298-4.0967 3.4248 0.6039 0.75828 4.6356-0.06701 0.282-1.3484 3.6841 4.3877 2.5332 2.5163-3.0097 0.2107-0.1991 4.3937-1.6611 2.2354 2.664-2.3988 4.0385-0.2327 0.17295-3.401 1.9554z" fill="url(#a)"/><circle transform="matrix(-.40409 .51686 -.90819 -.22798 89.451 117.24)" r="7.9375" fill="url(#a)"/></g></g><path transform="matrix(-.83253 .82103 -2.0153 -.28963 87.457 171.54)" d="m-0.30617 3.8446 3.8623-0.68817 0.2893-0.01703 4.4335 1.5517-1e-6 3.4776-4.4335 1.5517-0.2893-0.01703-3.8623-0.68817-1.7329 4.761 3.401 1.9554 0.2327 0.17295 2.3988 4.0385-2.2354 2.664-4.3937-1.6611-0.2107-0.1991-2.5163-3.0097-4.3877 2.5332 1.3484 3.6841 0.06701 0.282-0.75828 4.6356-3.4248 0.6039-2.298-4.0967-0.03348-0.2879 7e-3 -3.9231-4.9895-0.8798-1.3352 3.6889-0.12993 0.2591-3.5606 3.0637-3.0117-1.7388 0.873-4.6154 0.1594-0.2421 2.5271-3.0007-3.2567-3.8812-3.394 1.9676-0.2661 0.11496-4.6968 0.05821-1.1894-3.2679 3.6354-2.9745 0.2777-0.08297 3.8647-0.67431v-5.0665l-3.8647-0.67431-0.2777-0.08297-3.6354-2.9745 1.1894-3.2679 4.6968 0.05821 0.2661 0.11496 3.394 1.9676 3.2567-3.8812-2.5271-3.0007-0.1594-0.2421-0.873-4.6154 3.0117-1.7388 3.5606 3.0637 0.12993 0.2591 1.3352 3.6889 4.9895-0.8798-7e-3 -3.9231 0.03348-0.28792 2.298-4.0967 3.4248 0.6039 0.75828 4.6356-0.06701 0.282-1.3484 3.6841 4.3877 2.5332 2.5163-3.0097 0.2107-0.1991 4.3937-1.6611 2.2354 2.664-2.3988 4.0385-0.2327 0.17295-3.401 1.9554z" fill="url(#d)" stroke="#d86e10"/><circle transform="matrix(-.83253 .82103 -2.0153 -.28963 86.834 157.52)" r="7.9375" fill="url(#d)" stroke="#d86e10"/><path transform="translate(2.058e-6)" d="m33.786 100.51v46.001h0.05994a6.9751 1.995 0 0 0-0.04496 0.21704 6.9751 1.995 0 0 0 6.9753 1.9947 6.9751 1.995 0 0 0 6.9753-1.9947 6.9751 1.995 0 0 0-0.04186-0.21704h0.05323v-46.001h-0.05168a6.9667 1.9953 0 0 1-6.9169 1.7622 6.9667 1.9953 0 0 1-6.9164-1.7622z" display="none" fill="url(#c)" stroke="#124c8a" stroke-linecap="square" stroke-linejoin="round"/><ellipse transform="translate(2.058e-6)" cx="40.752" cy="100.3" rx="6.9667" ry="1.9953" display="none" fill="#7a8997" stroke="#124c8a" stroke-linecap="square" stroke-linejoin="round" stroke-width=".97634"/></g></svg>
